<svg width="53" height="29" viewBox="0 0 53 29" fill="none" xmlns="http://www.w3.org/2000/svg">
<path d="M7.0755 21.1165C7.0755 21.1165 0.742071 17.933 3.60097 17.4772C6.45987 17.0231 11.4018 18.8411 11.4018 18.8411C11.4018 18.8411 5.33153 14.5199 8.41138 14.7478C11.4912 14.9756 16.391 18.6132 16.391 18.6132C16.391 18.6132 14.8207 14.7478 17.8786 15.8838C20.9382 17.0215 22.5557 18.8395 22.5557 18.8395C22.5557 18.8395 19.142 22.705 16.2847 23.1607C13.4258 23.6148 14.1275 24.0705 12.2451 23.3886C10.3611 22.7082 7.0755 21.1165 7.0755 21.1165Z" fill="#F2F2F2" stroke="#263238" stroke-miterlimit="10" stroke-linecap="round" stroke-linejoin="round"/>
<path d="M50.4819 0.804962C50.4819 0.804962 34.2646 0.80982 31.8864 2.67307C29.5082 4.53632 26.2833 9.3811 25.0992 10.1277C23.9152 10.8727 11.0695 11.246 11.3968 13.8542C11.724 16.464 19.4961 16.8357 19.4961 16.8357L13.9183 22.4271C13.9183 22.4271 1.9548 18.3272 1.12496 20.5638C0.29512 22.8003 13.7969 27.6451 16.9088 27.6451C20.0207 27.6451 26.2883 25.7819 27.4825 24.6636C28.6749 23.5453 41.4767 12.4063 41.4767 12.4063C42.035 13.6376 51.3387 11.5595 51.7384 10.2586C52.0876 9.11929 50.4819 0.804962 50.4819 0.804962Z" fill="#F2F2F2" stroke="#263238" stroke-miterlimit="10" stroke-linecap="round" stroke-linejoin="round"/>
<path d="M19.4961 16.8357C19.4961 16.8357 26.6223 17.4773 29.4812 17.0232C32.3401 16.5691 35.7539 12.702 35.7539 12.702" stroke="#263238" stroke-miterlimit="10" stroke-linecap="round" stroke-linejoin="round"/>
</svg>
