<svg width="76" height="293" viewBox="0 0 76 293" fill="none" xmlns="http://www.w3.org/2000/svg">
<path d="M21.0797 4.8751L22.7698 48.0578C22.7698 48.0578 12.6296 78.8249 19.9531 112.292C27.2766 145.758 27.8399 173.288 27.8399 173.288C27.8399 173.288 31.22 197.038 31.22 208.373C31.22 219.708 27.2766 265.051 27.2766 265.051C27.2766 265.051 23.3331 270.449 18.8264 275.846C14.3196 281.243 3.051 284.482 1.36096 288.801C-0.329081 293.119 8.12106 291.5 14.8829 291.5C21.6431 291.5 33.4751 288.801 36.8552 287.182C40.2353 285.563 47.5588 286.642 49.2505 285.563C50.9405 284.483 53.1939 278.007 52.6305 273.147C52.0672 268.29 57.1373 225.647 60.5174 208.913C63.8975 192.179 58.8274 159.793 58.8274 159.793C58.8274 159.793 68.9693 72.3479 69.531 66.9505C70.0943 61.5531 76.2911 36.7232 75.1644 27.5459C74.0377 18.3703 72.911 3.79561 72.911 1.63664C72.9127 -0.522341 21.0797 4.8751 21.0797 4.8751Z" fill="#263238" stroke="#263238" stroke-miterlimit="10" stroke-linecap="round" stroke-linejoin="round"/>
</svg>
