<svg width="211" height="247" viewBox="0 0 211 247" fill="none" xmlns="http://www.w3.org/2000/svg">
<path d="M209.85 1H1V245.565H209.85V1Z" fill="#F2F2F2" stroke="#263238" stroke-miterlimit="10" stroke-linecap="round" stroke-linejoin="round"/>
<path d="M209.848 1.00647H1.00482V245.572H209.848V1.00647Z" fill="#F2F2F2" stroke="#263238" stroke-miterlimit="10" stroke-linecap="round" stroke-linejoin="round"/>
<path d="M209.848 1.00644V95.6071C197.991 106.854 183.384 117.391 166.079 124.097C111.903 145.089 41.5694 121.883 81.9144 47.8866C92.1356 29.1572 99.4726 13.6759 104.735 1.00644H209.848Z" fill="#70ABDE" stroke="#263238" stroke-miterlimit="10" stroke-linecap="round" stroke-linejoin="round"/>
<path d="M209.848 155.658V245.572H192.307C167.209 237.314 139.767 224.435 136.107 206.933C131.115 182.984 181.529 164.222 209.848 155.658Z" fill="#F2F2F2" stroke="#263238" stroke-miterlimit="10" stroke-linecap="round" stroke-linejoin="round"/>
<path d="M87.3794 245.572H1.00513V207.725C37.3528 173.935 92.3888 129.171 101.514 158.34C111.971 191.711 90.1961 225.695 87.3794 245.572Z" fill="#70ABDE" stroke="#263238" stroke-miterlimit="10" stroke-linecap="round" stroke-linejoin="round"/>
<path d="M57.7109 89.8541C57.7109 104.657 26.7943 114.191 1.00513 119.589V32.3892C22.3921 46.3676 57.7109 72.1428 57.7109 89.8541Z" fill="#F2F2F2" stroke="#263238" stroke-miterlimit="10" stroke-linecap="round" stroke-linejoin="round"/>
<path d="M132.069 102.006C148.305 102.006 161.466 90.3855 161.466 76.0503C161.466 61.7151 148.305 50.0941 132.069 50.0941C115.834 50.0941 102.672 61.7151 102.672 76.0503C102.672 90.3855 115.834 102.006 132.069 102.006Z" fill="#F2F2F2" stroke="#263238" stroke-miterlimit="10" stroke-linecap="round" stroke-linejoin="round"/>
<path d="M55.4068 140.664C55.4068 145.545 50.7617 149.501 45.0321 149.501C39.3025 149.501 34.6574 145.545 34.6574 140.664C34.6574 135.784 39.3025 131.828 45.0321 131.828C50.7617 131.828 55.4068 135.786 55.4068 140.664Z" fill="#F2F2F2" stroke="#263238" stroke-miterlimit="10" stroke-linecap="round" stroke-linejoin="round"/>
<path d="M146.478 167.173C146.478 173.883 140.801 179.322 133.798 179.322C126.795 179.322 121.118 173.883 121.118 167.173C121.118 160.464 126.795 155.024 133.798 155.024C140.801 155.024 146.478 160.464 146.478 167.173Z" fill="#F2F2F2" stroke="#263238" stroke-miterlimit="10" stroke-linecap="round" stroke-linejoin="round"/>
<path d="M172.993 201.413C172.993 203.853 170.928 205.831 168.381 205.831C165.835 205.831 163.77 203.853 163.77 201.413C163.77 198.973 165.835 196.995 168.381 196.995C170.928 196.995 172.993 198.973 172.993 201.413Z" fill="#F2F2F2" stroke="#263238" stroke-miterlimit="10" stroke-linecap="round" stroke-linejoin="round"/>
<path d="M91.6373 49.476C100.191 41.2807 100.191 27.9936 91.6374 19.7984C83.0838 11.6032 69.2156 11.6032 60.662 19.7984C52.1084 27.9937 52.1085 41.2807 60.6621 49.4759C69.2157 57.6711 83.0837 57.6712 91.6373 49.476Z" fill="#F2F2F2" stroke="#263238" stroke-miterlimit="10" stroke-linecap="round" stroke-linejoin="round"/>
</svg>
