<svg width="40" height="33" viewBox="0 0 40 33" fill="none" xmlns="http://www.w3.org/2000/svg">
<path d="M24.1882 1.00739C24.1882 1.00739 27.2883 5.67439 30.3884 9.9164C33.4885 14.1584 39.2451 16.2802 38.8015 18.402C38.3596 20.5238 35.7014 21.7956 33.9304 21.3723C32.1594 20.9472 25.0737 15.4318 25.0737 15.4318L26.4028 26.4626C26.4028 26.4626 28.1738 30.2813 25.0737 31.5547C21.9736 32.8281 17.5461 32.8281 16.6606 31.5547C15.7751 30.2813 14.8896 28.1611 14.8896 28.1611C14.8896 28.1611 7.36199 28.1611 5.14739 26.8877C2.9328 25.6142 0.2763 23.4941 0.718206 17.9786C1.1618 12.4632 4.7038 1.85578 4.7038 1.85578L24.1882 1.00739Z" fill="#F2F2F2" stroke="#263238" stroke-miterlimit="10" stroke-linecap="round" stroke-linejoin="round"/>
</svg>
